<svg width="149" height="24" viewBox="0 0 149 24" fill="none" xmlns="http://www.w3.org/2000/svg">
<path d="M3.26942 7.56464H0V16.4352H1.4573V13.3938H3.26942C4.94215 13.3938 6.20937 12.114 6.20937 10.4792C6.20937 8.83186 4.94215 7.56464 3.26942 7.56464ZM3.26942 12.0252H1.4573V8.93324H3.26942C4.13113 8.93324 4.75207 9.57952 4.75207 10.4792C4.75207 11.3663 4.13113 12.0252 3.26942 12.0252Z" fill="#B4B4B4"/>
<path d="M11.6835 16.5999C14.256 16.5999 16.2835 14.5724 16.2835 11.9999C16.2835 9.42745 14.256 7.3999 11.6835 7.3999C9.12377 7.3999 7.08355 9.42745 7.08355 11.9999C7.08355 14.5724 9.12377 16.5999 11.6835 16.5999ZM11.6835 15.1806C9.90944 15.1806 8.54085 13.8247 8.54085 11.9999C8.54085 10.1751 9.90944 8.81919 11.6835 8.81919C13.4577 8.81919 14.8262 10.1751 14.8262 11.9999C14.8262 13.8247 13.4577 15.1806 11.6835 15.1806Z" fill="#B4B4B4"/>
<path d="M19.2314 16.4352H20.9168L22.805 9.95968L24.6804 16.4352H26.3658L28.8749 7.56464H27.3416L25.4788 14.4963L23.4766 7.56464H22.1333L20.1185 14.4963L18.2557 7.56464H16.7223L19.2314 16.4352Z" fill="#B4B4B4"/>
<path d="M31.5998 15.0412V12.6462H35.148V11.2649H31.5998V8.95858H35.4648V7.56464H30.1425V16.4352H35.5281V15.0412H31.5998Z" fill="#B4B4B4"/>
<path d="M42.0451 16.4352H43.6418L41.6269 12.9883C42.666 12.5702 43.3883 11.5564 43.3883 10.4159C43.3883 8.83186 42.1211 7.56464 40.5371 7.56464H36.9889V16.4352H38.4462V13.2038H40.1696L42.0451 16.4352ZM38.4462 8.93324H40.5371C41.3101 8.93324 41.931 9.57952 41.931 10.4159C41.931 11.2396 41.3101 11.8985 40.5371 11.8985H38.4462V8.93324Z" fill="#B4B4B4"/>
<path d="M46.3445 15.0412V12.6462H49.8927V11.2649H46.3445V8.95858H50.2095V7.56464H44.8872V16.4352H50.2729V15.0412H46.3445Z" fill="#B4B4B4"/>
<path d="M55.2185 7.56464H51.7337V16.4352H55.2185C57.6642 16.4352 59.4637 14.471 59.4637 11.9999C59.4637 9.51616 57.6642 7.56464 55.2185 7.56464ZM55.2185 15.0412H53.191V8.95858H55.2185C56.9039 8.95858 58.0571 10.2385 58.0571 11.9999C58.0571 13.7487 56.9039 15.0412 55.2185 15.0412Z" fill="#B4B4B4"/>
<path d="M69.4347 11.8352C69.9923 11.4297 70.3344 10.796 70.3344 10.023C70.3344 8.60376 69.1686 7.56464 67.7366 7.56464H64.2138V16.4352H68.0154C69.4854 16.4352 70.6766 15.3707 70.6766 13.9007C70.6766 12.9503 70.1824 12.228 69.4347 11.8352ZM67.7366 8.93324C68.3829 8.93324 68.8771 9.44012 68.8771 10.0991C68.8771 10.758 68.3829 11.2649 67.7366 11.2649H65.6711V8.93324H67.7366ZM68.0154 15.0666H65.6711V12.5828H68.0154C68.6997 12.5828 69.2193 13.1277 69.2193 13.8247C69.2193 14.5217 68.6997 15.0666 68.0154 15.0666Z" fill="#B4B4B4"/>
<path d="M78.4966 7.56464H76.8366L74.6823 11.493L72.5154 7.56464H70.8553L73.9473 12.9123V16.4352H75.4046V12.9123L78.4966 7.56464Z" fill="#B4B4B4"/>
<path d="M108.742 12.2169V12.1847C108.742 9.63765 110.627 7.56934 113.164 7.56934C115.701 7.56934 117.559 9.60359 117.559 12.1526V12.1847C117.559 14.7318 115.674 16.8001 113.135 16.8001C110.596 16.8001 108.742 14.7583 108.742 12.2169ZM115.279 12.2169V12.1847C115.279 10.8771 114.409 9.73605 113.135 9.73605C111.811 9.73605 111.022 10.845 111.022 12.1526V12.1847C111.022 13.4923 111.891 14.6334 113.164 14.6334C114.488 14.6334 115.279 13.5245 115.279 12.2169Z" fill="white"/>
<path d="M122.945 16.8H122.816C122.156 16.8 121.709 16.3839 121.429 15.7423L118.789 9.66911C118.709 9.48163 118.665 9.28071 118.66 9.077C118.675 8.77154 118.807 8.48327 119.028 8.27152C119.25 8.05976 119.545 7.94062 119.853 7.93862C120.513 7.93862 120.867 8.30525 121.044 8.80386L122.898 13.7882L124.788 8.7727C124.863 8.52962 125.015 8.31712 125.221 8.16684C125.428 8.01655 125.677 7.93651 125.933 7.93862C126.087 7.93619 126.239 7.96423 126.382 8.0211C126.525 8.07798 126.655 8.16256 126.764 8.2699C126.874 8.37724 126.961 8.50518 127.02 8.64628C127.079 8.78737 127.109 8.93878 127.109 9.09167C127.101 9.29023 127.057 9.48576 126.98 9.66911L124.338 15.7423C124.051 16.3674 123.606 16.8 122.945 16.8Z" fill="white"/>
<path d="M132.905 16.7981C130.417 16.7981 128.579 14.9289 128.579 12.2159V12.1837C128.579 9.65233 130.263 7.56934 132.674 7.56934C135.44 7.56934 136.659 10.0004 136.659 11.8356C136.667 11.9935 136.644 12.1515 136.592 12.2995C136.541 12.4476 136.461 12.5826 136.358 12.6961C136.255 12.8096 136.131 12.8992 135.995 12.9591C135.858 13.0191 135.711 13.0481 135.563 13.0445H130.917C131.149 14.1797 131.891 14.7794 132.941 14.7794C133.544 14.7857 134.131 14.5767 134.611 14.1854C134.774 14.0524 134.977 13.9854 135.182 13.9962C135.303 13.9941 135.424 14.0184 135.536 14.0676C135.649 14.1169 135.751 14.1901 135.836 14.2828C135.921 14.3755 135.988 14.4857 136.032 14.6069C136.077 14.728 136.098 14.8575 136.094 14.9875C136.094 15.1282 136.067 15.2673 136.014 15.3959C135.961 15.5244 135.882 15.6393 135.784 15.7329C134.978 16.4525 133.954 16.8314 132.905 16.7981ZM134.42 11.4724C134.28 10.3486 133.662 9.58044 132.674 9.58044C131.686 9.58044 131.067 10.324 130.882 11.4724H134.42Z" fill="white"/>
<path d="M138.497 6.08028C138.497 5.40168 139.136 4.98462 139.966 4.98462C140.797 4.98462 141.436 5.40168 141.436 6.08028V6.11209C141.436 6.79247 140.797 7.22366 139.966 7.22366C139.136 7.22366 138.497 6.79247 138.497 6.11209V6.08028ZM138.653 9.13931C138.653 8.8281 138.792 8.52963 139.038 8.30957C139.284 8.08951 139.618 7.96589 139.966 7.96589C140.315 7.96589 140.649 8.08951 140.895 8.30957C141.141 8.52963 141.28 8.8281 141.28 9.13931V15.2574C141.28 15.5686 141.141 15.867 140.895 16.0871C140.649 16.3071 140.315 16.4308 139.966 16.4308C139.618 16.4308 139.284 16.3071 139.038 16.0871C138.792 15.867 138.653 15.5686 138.653 15.2574V9.13931Z" fill="white"/>
<path d="M143.656 14.2241V10.1531H143.572C143.294 10.1419 143.031 10.0271 142.838 9.83283C142.646 9.63856 142.538 9.37981 142.538 9.11065C142.538 8.84149 142.646 8.58274 142.838 8.38847C143.031 8.19419 143.294 8.07943 143.572 8.06815H143.656V6.98989C143.649 6.82589 143.677 6.66229 143.737 6.5089C143.798 6.35551 143.89 6.21548 144.007 6.0972C144.125 5.97892 144.266 5.88482 144.422 5.82055C144.579 5.75627 144.747 5.72314 144.917 5.72314C145.086 5.72314 145.254 5.75627 145.411 5.82055C145.567 5.88482 145.708 5.97892 145.826 6.0972C145.943 6.21548 146.035 6.35551 146.096 6.5089C146.156 6.66229 146.184 6.82589 146.177 6.98989V8.06264H147.291C147.436 8.05675 147.582 8.07934 147.718 8.12908C147.854 8.17881 147.978 8.25465 148.083 8.35203C148.188 8.44942 148.272 8.56634 148.329 8.69577C148.386 8.82519 148.416 8.96444 148.416 9.10515C148.416 9.24585 148.386 9.3851 148.329 9.51453C148.272 9.64395 148.188 9.76087 148.083 9.85826C147.978 9.95564 147.854 10.0315 147.718 10.0812C147.582 10.1309 147.436 10.1535 147.291 10.1476H146.181V13.8152C146.181 14.3763 146.43 14.6477 146.993 14.6477C147.076 14.6477 147.242 14.6331 147.291 14.6331C147.567 14.634 147.833 14.7405 148.028 14.9294C148.224 15.1183 148.335 15.3743 148.336 15.6416C148.335 15.8394 148.273 16.0323 148.158 16.1957C148.043 16.3591 147.879 16.4854 147.689 16.5585C147.23 16.73 146.74 16.8116 146.247 16.7988C144.701 16.8061 143.656 16.2119 143.656 14.2241Z" fill="white"/>
<path d="M96.6281 0.535041C96.2263 0.305307 95.7726 0.18457 95.311 0.18457C94.8494 0.18457 94.3957 0.305307 93.9939 0.535041L85.8337 5.26584C85.4275 5.50207 85.09 5.84237 84.8554 6.25244C84.6207 6.66251 84.4971 7.12785 84.4971 7.60159V16.5044C84.4978 16.9831 84.6246 17.453 84.8645 17.8657C85.1045 18.2784 85.4488 18.6191 85.8621 18.8527L94.0135 23.4685C94.4118 23.6959 94.8615 23.8153 95.319 23.8153C95.7765 23.8153 96.2262 23.6959 96.6245 23.4685L104.458 18.9587C104.866 18.7236 105.205 18.3838 105.441 17.9737C105.677 17.5635 105.802 17.0976 105.803 16.623V7.37879C105.802 6.90435 105.678 6.43853 105.442 6.0284C105.206 5.61827 104.867 5.27836 104.459 5.04304L96.6281 0.535041ZM103.873 13.2451C103.753 13.5488 103.577 13.8263 103.354 14.0626C103.118 14.3129 102.827 14.5037 102.504 14.6196L95.8407 17.3596L93.203 11.9694C92.9808 11.5382 92.3907 10.0487 92.3836 9.76845C92.3758 9.44167 92.4307 9.11646 92.5453 8.81079C92.6621 8.5121 92.8354 8.2393 93.0554 8.00765C93.2889 7.7651 93.5749 7.58059 93.8908 7.46863C94.164 7.36681 94.4528 7.31451 94.744 7.31411H94.7955C95.4252 7.33105 96.0298 7.56714 96.5072 7.9825C96.737 8.18514 96.928 8.42875 97.0707 8.70119L98.0713 10.8141C98.1133 10.9015 98.1871 10.9689 98.2773 11.0024C98.3674 11.0359 98.4669 11.0328 98.5548 10.9938L100.613 10.0829C100.87 9.97921 101.145 9.92615 101.422 9.92656H101.496C101.81 9.93341 102.12 9.99417 102.414 10.1062C102.701 10.218 102.967 10.3797 103.199 10.5842C103.433 10.7895 103.626 11.0376 103.768 11.3154C103.925 11.6149 104.013 11.9468 104.024 12.2857C104.037 12.6125 103.986 12.9387 103.873 13.2451Z" fill="url(#paint0_linear_122_952)"/>
<defs>
<linearGradient id="paint0_linear_122_952" x1="84.4971" y1="11.9964" x2="105.803" y2="11.9964" gradientUnits="userSpaceOnUse">
<stop stop-color="#F0047F"/>
<stop offset="1" stop-color="#E0013F"/>
</linearGradient>
</defs>
</svg>
